<svg xmlns="http://www.w3.org/2000/svg" viewBox="0 0 512 512" fill="none">
  <defs>
    <linearGradient id="leftEdge" x1="64" y1="188" x2="164" y2="404" gradientUnits="userSpaceOnUse">
      <stop offset="0" stop-color="#3bc8ff"/>
      <stop offset="1" stop-color="#2458ff"/>
    </linearGradient>
    <linearGradient id="rightEdge" x1="348" y1="188" x2="456" y2="404" gradientUnits="userSpaceOnUse">
      <stop offset="0" stop-color="#ffc343"/>
      <stop offset="1" stop-color="#ff5b45"/>
    </linearGradient>
    <linearGradient id="pageFill" x1="256" y1="180" x2="256" y2="378" gradientUnits="userSpaceOnUse">
      <stop offset="0" stop-color="#ffffff"/>
      <stop offset="1" stop-color="#f1f2ff"/>
    </linearGradient>
    <linearGradient id="pageShade" x1="256" y1="236" x2="256" y2="360" gradientUnits="userSpaceOnUse">
      <stop offset="0" stop-color="#d7dcff"/>
      <stop offset="1" stop-color="#f7f7ff" stop-opacity=".2"/>
    </linearGradient>
    <linearGradient id="centerBar" x1="256" y1="52" x2="256" y2="282" gradientUnits="userSpaceOnUse">
      <stop offset="0" stop-color="#ffd847"/>
      <stop offset=".55" stop-color="#ff8d3b"/>
      <stop offset="1" stop-color="#4450ff"/>
    </linearGradient>
    <linearGradient id="leftBar" x1="198" y1="126" x2="198" y2="246" gradientUnits="userSpaceOnUse">
      <stop offset="0" stop-color="#29d5ff"/>
      <stop offset="1" stop-color="#3558ff"/>
    </linearGradient>
    <linearGradient id="leftBarTall" x1="218" y1="90" x2="218" y2="252" gradientUnits="userSpaceOnUse">
      <stop offset="0" stop-color="#39d0ff"/>
      <stop offset="1" stop-color="#314bda"/>
    </linearGradient>
    <linearGradient id="rightBarTall" x1="304" y1="90" x2="304" y2="252" gradientUnits="userSpaceOnUse">
      <stop offset="0" stop-color="#ffa739"/>
      <stop offset="1" stop-color="#da3165"/>
    </linearGradient>
    <linearGradient id="rightBar" x1="342" y1="146" x2="342" y2="226" gradientUnits="userSpaceOnUse">
      <stop offset="0" stop-color="#ff8f3a"/>
      <stop offset="1" stop-color="#ff5d4c"/>
    </linearGradient>
    <filter id="glowBlue" x="24" y="138" width="268" height="286" color-interpolation-filters="sRGB">
      <feGaussianBlur stdDeviation="36"/>
    </filter>
    <filter id="glowGold" x="180" y="52" width="196" height="268" color-interpolation-filters="sRGB">
      <feGaussianBlur stdDeviation="34"/>
    </filter>
    <filter id="glowRed" x="224" y="138" width="264" height="286" color-interpolation-filters="sRGB">
      <feGaussianBlur stdDeviation="36"/>
    </filter>
    <filter id="shadow" x="40" y="48" width="432" height="390" color-interpolation-filters="sRGB">
      <feDropShadow dx="0" dy="16" stdDeviation="16" flood-color="#000000" flood-opacity=".25"/>
    </filter>
  </defs>

  <g opacity=".9">
    <ellipse cx="176" cy="286" rx="104" ry="88" fill="#33b8ff" fill-opacity=".55" filter="url(#glowBlue)"/>
    <ellipse cx="256" cy="196" rx="68" ry="72" fill="#ffd446" fill-opacity=".78" filter="url(#glowGold)"/>
    <ellipse cx="336" cy="286" rx="104" ry="88" fill="#ff6b4d" fill-opacity=".58" filter="url(#glowRed)"/>
  </g>

  <g filter="url(#shadow)">
    <path d="M122 186v172c34-16 83-24 134 7V215c-37-21-81-31-134-29Z" fill="url(#pageFill)"/>
    <path d="M390 186v172c-34-16-83-24-134 7V215c37-21 81-31 134-29Z" fill="url(#pageFill)"/>
    <path d="M122 186v172c34-16 83-24 134 7V215c-37-21-81-31-134-29Z" fill="url(#pageShade)" opacity=".32"/>
    <path d="M390 186v172c-34-16-83-24-134 7V215c37-21 81-31 134-29Z" fill="url(#pageShade)" opacity=".32"/>

    <path d="M102 186v210c42-22 104-31 154-6 50-25 112-16 154 6V186" stroke="#171326" stroke-width="10" stroke-linecap="round" stroke-linejoin="round"/>
    <path d="M122 186v172c34-16 83-24 134 7" stroke="#eef2ff" stroke-width="10" stroke-linecap="round" stroke-linejoin="round"/>
    <path d="M390 186v172c-34-16-83-24-134 7" stroke="#eef2ff" stroke-width="10" stroke-linecap="round" stroke-linejoin="round"/>

    <path d="M256 395c-44-55-103-71-154-60" stroke="url(#leftEdge)" stroke-width="18" stroke-linecap="round"/>
    <path d="M256 395c44-55 103-71 154-60" stroke="url(#rightEdge)" stroke-width="18" stroke-linecap="round"/>
    <path d="M112 216v136" stroke="url(#leftEdge)" stroke-width="16" stroke-linecap="round"/>
    <path d="M400 216v136" stroke="url(#rightEdge)" stroke-width="16" stroke-linecap="round"/>

    <path d="M150 300c38-5 76 8 106 37" stroke="#d9ddff" stroke-width="10" stroke-linecap="round" opacity=".92"/>
    <path d="M362 300c-38-5-76 8-106 37" stroke="#d9ddff" stroke-width="10" stroke-linecap="round" opacity=".92"/>
    <path d="M142 334c40-8 82 4 114 34" stroke="#1a1530" stroke-width="14" stroke-linecap="round"/>
    <path d="M370 334c-40-8-82 4-114 34" stroke="#1a1530" stroke-width="14" stroke-linecap="round"/>

    <rect x="160" y="214" width="16" height="114" rx="8" fill="url(#leftEdge)"/>
    <rect x="180" y="178" width="18" height="126" rx="9" fill="url(#leftBar)"/>
    <rect x="205" y="126" width="30" height="162" rx="15" fill="url(#leftBarTall)"/>
    <rect x="240" y="52" width="32" height="230" rx="16" fill="url(#centerBar)"/>
    <rect x="291" y="126" width="30" height="162" rx="15" fill="url(#rightBarTall)"/>
    <rect x="337" y="146" width="22" height="80" rx="11" fill="url(#rightBar)"/>
    <rect x="176" y="188" width="18" height="54" rx="9" fill="url(#leftBar)" opacity=".95"/>
  </g>
</svg>
